# xmcd CD database file
#
# Track frame offsets:
#	150
#	16708
#	32151
#	45777
#	61836
#	74397
#	93027
#	113960
#	133292
#	145930
#	162272
#	173243
#	192855
#	206609
#	226216
#	238320
#	253028
#	268767
#	287377
#	300779
#	314506
#	328478
#
# Disc length: 4545 seconds
#
# Revision: 0
# Processed by: cddbd v1.5.2PL0 Copyright (c) Steve Scherf et al.
# Submitted via: CDex 1.51
#
DISCID=3511bf16
DTITLE=Various Artist - New Orleans Revival 1940-1954
DYEAR=2006
DGENRE=Jazz
TTITLE0=Blues With Bechet - With George &Sidney Bechet
TTITLE1=Get It Right - Kid Rena's Delta Jazz Band
TTITLE2=Panama - Bunk Johnson Superior Band
TTITLE3=Careless Love - George Lewis and His New Orleans Stompers
TTITLE4=Muskrat Ramble - Kid Ory and his Creole Jazz Band
TTITLE5=San Jacinto Stomp - With 'Kid Shots' and George Lewis
TTITLE6=Dumaine Street Drag - With 'Kid Shots' and George Lewis
TTITLE7=My Life Will Be Sweeter Someday - Bunk Johnson's Band
TTITLE8=Creole Song - Kid Ory's Creole Jazz Band
TTITLE9=Shake It And Break It - Wooden Joe's New Orleans Band
TTITLE10=Eh La Bas - Wooden Joe's New Orleans Band
TTITLE11=Milenburg Joys - 'Bunk' Johnson, Sidney Bechet and their orchestra
TTITLE12=Gloryland - Bunk's Brass Band
TTITLE13=Over The Waves - George Lewis Trio
TTITLE14=Salutation March - The Original Zenith Brass Band
TTITLE15=I'll Take You Home Again Kathleen - With Bunk Johnson
TTITLE16=Maryland, My Maryland - Louis Armstrong and His Dixieland Six
TTITLE17=Snag It - 'Kid' Ory and his Creole Jazz Band
TTITLE18=Shim Sha Wabble - Mutt Carey and his New Yorkers
TTITLE19=Chrysanthemum - Mutt Carey and his New Yorkers
TTITLE20=Les Ognons - With Albert Nicholson
TTITLE21=I Just Can't Help Myself - With Punch Miller
EXTD=YEAR: 2006
EXTT0=
EXTT1=
EXTT2=
EXTT3=
EXTT4=
EXTT5=
EXTT6=
EXTT7=
EXTT8=
EXTT9=
EXTT10=
EXTT11=
EXTT12=
EXTT13=
EXTT14=
EXTT15=
EXTT16=
EXTT17=
EXTT18=
EXTT19=
EXTT20=
EXTT21=
PLAYORDER=
